<?xml version="1.0" standalone="no"?>
<!DOCTYPE svg PUBLIC "-//W3C//DTD SVG 20010904//EN"
 "http://www.w3.org/TR/2001/REC-SVG-20010904/DTD/svg10.dtd">
<svg version="1.0" xmlns="http://www.w3.org/2000/svg"
 width="200.000000pt" height="200.000000pt" viewBox="0 0 200.000000 200.000000"
 preserveAspectRatio="xMidYMid meet">
<metadata>
Created by potrace 1.14, written by Peter Selinger 2001-2017
</metadata>
<g transform="translate(0.000000,200.000000) scale(0.100000,-0.100000)"
fill="#000000" stroke="none">
<path d="M898 1925 c-2 -2 -22 -6 -43 -9 -22 -2 -40 -5 -40 -6 0 -1 -8 -3 -17
-6 -76 -18 -133 -38 -140 -49 -4 -5 -8 -7 -8 -3 0 4 -24 -5 -52 -19 -29 -15
-53 -25 -53 -23 0 2 -9 -3 -20 -12 -56 -47 -114 -86 -118 -81 -3 2 -8 -5 -12
-16 -3 -12 -9 -20 -13 -18 -7 4 -52 -39 -62 -58 -3 -6 -8 -9 -12 -7 -5 1 -8
-5 -8 -13 0 -8 -4 -15 -8 -15 -11 0 -94 -122 -92 -134 1 -5 -4 -12 -12 -17 -7
-5 -13 -12 -14 -16 0 -4 -10 -28 -21 -53 -28 -61 -36 -82 -37 -100 0 -8 -4
-17 -8 -20 -4 -3 -9 -20 -12 -38 -4 -17 -9 -47 -13 -64 -11 -51 -6 -298 7
-353 6 -27 13 -57 15 -65 2 -8 4 -16 5 -17 2 -2 4 -7 5 -13 1 -5 4 -12 5 -15
1 -3 4 -8 5 -12 1 -5 8 -24 16 -43 7 -19 12 -38 11 -42 -1 -5 2 -8 6 -8 5 0
14 -16 22 -35 8 -19 17 -35 20 -35 4 0 12 -11 18 -25 12 -26 22 -40 55 -76 9
-10 17 -21 17 -24 0 -3 16 -21 35 -41 19 -19 35 -39 35 -44 0 -5 7 -7 15 -4
10 4 15 0 15 -12 0 -9 3 -14 6 -11 4 3 15 -5 26 -18 11 -14 26 -25 34 -25 8 0
14 -5 14 -11 0 -5 4 -7 10 -4 5 3 10 -1 10 -9 0 -9 8 -16 19 -16 11 0 22 -4
26 -9 7 -12 64 -41 90 -47 11 -2 21 -8 23 -14 2 -5 14 -10 26 -10 12 0 26 -4
31 -9 9 -7 48 -19 125 -38 35 -8 323 -12 335 -5 6 4 18 8 28 9 9 2 25 4 35 6
9 1 22 5 27 8 6 4 18 5 28 4 9 -2 17 1 17 6 0 5 9 9 20 9 11 0 20 5 20 11 0 5
4 8 9 5 9 -6 72 22 82 37 3 5 8 8 10 7 8 -4 79 34 79 42 0 5 5 6 10 3 6 -3 10
-2 10 4 0 5 9 12 20 16 10 3 60 47 110 98 114 115 130 133 110 122 -8 -4 -5 2
8 14 12 12 20 26 17 32 -4 5 1 9 9 9 10 0 13 6 9 17 -4 11 -3 14 5 9 7 -4 13
-2 13 3 2 18 5 24 29 76 13 28 24 55 25 60 0 6 3 15 7 20 7 12 25 77 32 120 3
17 8 41 11 55 14 70 6 249 -16 335 -6 22 -12 47 -13 55 -2 8 -8 26 -13 40 -6
14 -9 28 -6 33 2 4 -1 7 -6 7 -6 0 -11 3 -10 8 2 15 -14 52 -22 52 -5 0 -8 3
-7 8 4 11 -26 72 -34 72 -5 0 -8 7 -8 15 0 8 -4 15 -10 15 -5 0 -10 7 -10 15
0 8 -4 15 -10 15 -5 0 -10 6 -10 14 0 8 -7 17 -16 20 -9 4 -14 9 -12 12 7 6
-89 104 -102 104 -6 0 -10 6 -10 14 0 8 -13 20 -29 27 -16 7 -27 17 -25 21 3
4 -2 8 -10 8 -9 0 -16 5 -16 10 0 6 -6 10 -13 10 -7 0 -23 9 -35 20 -12 11
-28 20 -37 20 -8 0 -15 5 -15 12 0 6 -3 8 -7 5 -3 -4 -12 1 -20 11 -9 10 -12
11 -7 2 5 -11 2 -10 -13 3 -11 10 -24 17 -29 16 -5 -1 -26 5 -46 15 -36 15
-128 39 -155 39 -7 0 -13 3 -13 6 0 6 -256 12 -262 6z m-50 -266 c12 -7 22
-18 22 -24 0 -7 8 -19 17 -26 14 -12 16 -12 8 0 -5 10 -4 12 4 7 6 -4 9 -12 6
-17 -4 -5 1 -12 9 -15 9 -3 16 -12 16 -20 0 -8 4 -14 9 -14 5 0 13 -9 16 -20
4 -11 10 -18 15 -15 4 3 10 -1 13 -8 3 -7 22 -14 43 -16 37 -3 73 -7 84 -10
13 -3 8 -50 -5 -61 -8 -7 -15 -9 -15 -5 0 4 -6 2 -14 -4 -13 -11 -12 -17 5
-46 26 -44 53 -60 113 -68 72 -10 94 -51 40 -75 -29 -14 -30 -27 -4 -49 11
-10 20 -23 20 -30 0 -7 7 -13 15 -13 8 0 15 -9 15 -21 0 -11 4 -18 8 -15 5 3
16 -4 25 -15 11 -12 30 -19 54 -19 118 -1 232 -10 258 -20 17 -6 31 -11 33
-11 14 4 32 -3 51 -20 l23 -21 -26 -27 c-15 -15 -32 -28 -39 -28 -6 -1 -29 -4
-50 -8 -21 -3 -96 -7 -166 -9 l-127 -2 -37 -39 c-20 -22 -37 -44 -37 -48 0
-12 -27 -37 -34 -32 -3 3 -4 2 -1 -2 3 -3 0 -12 -7 -20 -6 -8 -7 -13 -2 -11
20 5 54 -23 54 -47 0 -23 -24 -35 -85 -40 -29 -2 -65 -15 -65 -24 0 -4 -8 -16
-18 -27 -21 -22 -37 -58 -22 -49 6 3 10 2 10 -4 0 -5 9 -12 19 -16 13 -4 18
-13 16 -31 -3 -34 -8 -37 -57 -39 -62 -3 -82 -11 -102 -45 -9 -17 -22 -28 -27
-25 -5 4 -9 -1 -9 -9 0 -9 -4 -16 -10 -16 -5 0 -10 -6 -10 -13 0 -17 -69 -79
-81 -72 -5 4 -9 2 -9 -4 0 -14 -47 7 -54 24 -2 7 2 24 9 39 8 15 14 29 15 31
0 3 4 5 8 6 4 0 9 10 9 21 1 12 6 24 11 27 12 9 74 131 66 131 -4 0 0 8 8 18
13 15 27 44 28 57 0 3 11 27 24 54 14 27 22 51 19 55 -4 3 -1 6 6 6 7 0 11 6
8 14 -3 8 -2 16 4 18 8 3 16 30 21 67 3 25 -5 40 -19 40 -64 1 -250 10 -313
16 -66 6 -78 4 -98 -13 -12 -11 -22 -22 -22 -26 0 -7 -34 -48 -72 -88 -21 -23
-35 -28 -64 -26 -39 2 -51 17 -38 46 4 9 8 19 9 22 1 3 5 14 9 25 4 11 13 34
19 50 6 17 12 35 13 40 0 6 2 13 4 18 7 20 4 36 -16 85 -13 28 -20 52 -17 52
3 0 1 6 -4 13 -16 21 -16 74 0 80 28 11 85 -10 92 -34 4 -10 14 -19 22 -19 9
0 14 -3 10 -6 -3 -3 -1 -11 4 -18 44 -52 59 -72 59 -77 0 -3 15 -5 33 -3 17 1
86 5 152 9 258 13 255 12 224 102 -10 31 -24 62 -30 70 -7 7 -9 16 -5 20 3 3
-1 15 -11 25 -9 10 -13 18 -9 18 3 0 0 10 -9 23 -8 13 -12 27 -8 30 3 4 1 7
-5 7 -7 0 -12 9 -12 19 0 11 -5 21 -11 23 -5 2 -11 10 -12 18 -5 28 -73 151
-91 162 -6 4 -8 8 -3 8 4 0 1 13 -8 30 -8 16 -16 32 -18 34 -1 3 7 12 18 20
21 15 47 13 83 -5z"/>
</g>
</svg>
